<svg width="100" height="100" fill="none" xmlns="http://www.w3.org/2000/svg">
  <defs>
    <filter id="blackGlow" x="-30%" y="-30%" width="160%" height="160%">
      <feDropShadow dx="0" dy="0" stdDeviation="4" flood-color="black" flood-opacity="1"/>
    </filter>
  </defs>
  <path filter="url(#blackGlow)" stroke="#fff" stroke-width="4" d="M59.5671 77v-3.903c5.3436-2.2134 9.7545-6.2112 12.481-11.3121 2.7265-5.1009 3.5999-10.9894 2.4716-16.6622-1.1284-5.6727-4.1888-10.7787-8.6598-14.448C61.3889 27.0055 55.7839 25 50 25c-5.7838 0-11.3888 2.0055-15.8598 5.6747-4.471 3.6693-7.5314 8.7753-8.6598 14.448-1.1284 5.6728-.2549 11.5613 2.4716 16.6622 2.7265 5.101 7.1373 9.0987 12.481 11.3121V77m-.003-2H23m54 0H59.57"/>
</svg>
